<svg xmlns="http://www.w3.org/2000/svg" viewBox="0 0 155.92 154.74"><defs><style>.cls-1{fill:#507ed9;}.cls-1,.cls-2,.cls-3,.cls-4,.cls-5{stroke:#000;}.cls-1,.cls-2,.cls-4,.cls-5{stroke-linecap:round;stroke-linejoin:round;}.cls-2{fill:#436df4;}.cls-3{fill:#fff;stroke-miterlimit:10;}.cls-4{fill:#6d59ff;}.cls-5{fill:#635ffe;}</style></defs><title>Asset 1</title><g id="Layer_2" data-name="Layer 2"><g id="Layer_1-2" data-name="Layer 1"><g id="Layer_1-2-2" data-name="Layer 1-2"><path class="cls-1" d="M9,47.55l-1.3,9c-.1,1.3-2,3-5.8,5-2.2,4-.4,9.4,5.4,16.4l22.5-10.9a14.84,14.84,0,0,0,2.3-9.2l-5.6,2.4,5.6-2.4a9.07,9.07,0,0,0-.7-2.8C24.69,42.55,17.19,40.05,9,47.55Z"/><path class="cls-2" d="M106.29,23.25a41.74,41.74,0,0,0-12.8-9c-13.7-4.5-25.9-2.2-36.8,7-8.3,8.8-11.2,17.2-8.8,25.3a28.37,28.37,0,0,0,7.4.8,28.28,28.28,0,0,1-7.5-.8,6.86,6.86,0,0,1-2.1-.8c-18.3-7.1-30.5-6.5-36.7,1.8q12.3-11.25,22.5,7.5a14.35,14.35,0,0,1,.7,2.8c.3,2.9-.5,5.9-2.3,9.2l13,18.2,14-21.5,3.7-5.7-3.7,5.7q17.4,16.65,37.8,6.6c13.6-6.7,20.1-16.5,19.3-29.5a28.34,28.34,0,0,0-7.7-17.6M73,18.35c1.7,0,3.4.8,5.3,2.3s2.8,3.2,2.8,4.8a5.4,5.4,0,0,1-.7,3.2c-.5.7-1.5,1-2.9,1a3.74,3.74,0,0,1-1.4-.5q-1-.6-1.5.6a59.69,59.69,0,0,1-4.3,7,4.31,4.31,0,0,1-3.1,1.5,9,9,0,0,1-5.6-2.2c-1.9-1.5-2.9-3-2.9-4.7s2-4.2,6.1-7.7,6.9-5.3,8.2-5.3m16,11.1a6,6,0,0,1-.9-3.5c.3-1.8.8-2.7,1.3-2.8a8,8,0,0,1,1.3-.1,5,5,0,0,1,3.3,1.4,5,5,0,0,1,1.7,3.8,2.41,2.41,0,0,1-1.1,2,4.61,4.61,0,0,1-2.5.7,3.94,3.94,0,0,1-3.1-1.5m57.6.5c-.3.8-.8,2.1-1.6,3.9a7.2,7.2,0,0,0-.8,4.5c.3,1.3,1.6,2.7,3.7,4.3s3.5,3,3.9,4.2a5.71,5.71,0,0,1,.1,2.9,6.78,6.78,0,0,1-1.3,2.7,11.75,11.75,0,0,1-2.9,2.4c.1,0,.3-.1.4-.1,10.3-.4,9.7-8.7-1.5-24.8m-3.9-20.4c-.8-1.1-1.5-2.3-2.3-3.6a13,13,0,0,0-4.3-3.9,8.38,8.38,0,0,0-5.8-1.5,6.59,6.59,0,0,0-4.3,2.5,94.51,94.51,0,0,0-6.2,9.3,30.36,30.36,0,0,1-6.3,7.3,16,16,0,0,1-7.3,3.6,28.07,28.07,0,0,1,7.7,17.6q7.2,1.2,10.2,2.7a15.39,15.39,0,0,1,5.6,5c1.7,2.4,3.1,3.8,4,4.2s2.6,1.2,4.9,2.3,4.2,1.4,5.8.9a15.52,15.52,0,0,0,3.3-1.2,11.5,11.5,0,0,0,2.9-2.3,6.78,6.78,0,0,0,1.3-2.7,4.14,4.14,0,0,0-.1-2.9c-.4-1.2-1.8-2.6-3.9-4.2s-3.4-3-3.7-4.3a6.51,6.51,0,0,1,.8-4.5c.8-1.8,1.3-3.1,1.6-3.9a2.35,2.35,0,0,0,.2-.7,6.86,6.86,0,0,0-.6-4.2,7.32,7.32,0,0,0-2.7-3.3A10.94,10.94,0,0,1,141,20a2.77,2.77,0,0,1-.6-1.8l2.8-2.7a2.71,2.71,0,0,0,.6-1.9,6.7,6.7,0,0,0-1.1-4Z"/><path class="cls-3" d="M88,26a6,6,0,0,0,.9,3.5,3.66,3.66,0,0,0,3.1,1.4,3.85,3.85,0,0,0,2.5-.7,2.73,2.73,0,0,0,1.1-2,5,5,0,0,0-1.7-3.8,5,5,0,0,0-3.3-1.4,8,8,0,0,0-1.3.1c-.5.2-.9,1.1-1.3,2.9m-9.7-5.3a8.56,8.56,0,0,0-5.3-2.3c-1.3,0-4,1.8-8.2,5.3s-6.2,6-6.1,7.7,1,3.2,2.9,4.7a8.77,8.77,0,0,0,5.6,2.2,4.31,4.31,0,0,0,3.1-1.5c.4-.5,1.8-2.8,4.3-7,.3-.8.8-1,1.6-.6a5.32,5.32,0,0,0,1.4.5c1.4,0,2.4-.3,2.9-1a5.92,5.92,0,0,0,.7-3.2c-.1-1.62-1-3.22-2.9-4.82Z"/><path class="cls-4" d="M43.19,87.25a31.12,31.12,0,0,0-3.7,12.4,31.86,31.86,0,0,0,.5,8.1c4.3,12.9,14,20.5,29.3,22.7,11.2.5,20.1-2.5,26.8-8.9a32.49,32.49,0,0,0-1.4-4.6,32.49,32.49,0,0,1,1.4,4.6c.3,1.1.5,2.2.8,3.5.4,1.8.9,4.6,1.6,8.3,1.6,6.9,4.1,11.8,7.5,14.8q3.6,3,7.2,2.7l.6-.1c2.1-.3,4.3-1.7,6.6-4.4,5.1-5.5,7.9-10.3,8.3-14.6s-.3-7.7-1.9-10.3a26.25,26.25,0,0,0-6.8-6.9c.8-3.3,3.2-6.6,7.1-9.9q5.25-4.35,9.6-4.5-.9-1.8-6.6-1.8c-7.1-.2-12.6.6-16.7,2.3q-5.25,2.1-8.1,3.3c-.27.09-.54.19-.8.3a14.33,14.33,0,0,1-6.3.7,14.33,14.33,0,0,0,6.3-.7,6,6,0,0,0,.8-.3c2.4-8.7-.1-16.7-7.6-24a36.16,36.16,0,0,0-18.8-9.6,33.54,33.54,0,0,0-20.8,2.4A31.11,31.11,0,0,0,47.29,81a63.51,63.51,0,0,0-4.1,6.3m3.7,14.1c-.8-1.3-.3-4.6,1.5-9.8s3.2-8.2,4.3-8.9a7.71,7.71,0,0,1,5.4-1.1c2.3.2,3.8,1,4.7,2.3a5,5,0,0,1,.9,2.9,3.62,3.62,0,0,1-1.9,2.5,2.9,2.9,0,0,1-1.4.4,1,1,0,0,0-1,1.06,1,1,0,0,0,.05.24c-.1,4.8-.1,7.5-.3,8.1a4.79,4.79,0,0,1-1.8,3.1,8.34,8.34,0,0,1-5.5,1.3c-2.6,0-4.2-.8-5-2.1m25.7-25.6a4.09,4.09,0,0,1,3.1,2.1,2.63,2.63,0,0,1,.2,2.3,6.51,6.51,0,0,1-1.8,2,3.46,3.46,0,0,1-3.2.5,5.41,5.41,0,0,1-2.5-2.3c-.6-1.7-.6-2.7-.3-3.1a3.35,3.35,0,0,1,1.1-.8,5,5,0,0,1,3.4-.7m29.7,44.5,7.7,6.1-7.7-6.1M22.09,59.05a10.4,10.4,0,0,0-4.1.6c-1.33.51-2.63,1.07-3.9,1.7A22.23,22.23,0,0,0,9.69,64a8.05,8.05,0,0,0-3,3.7,13.92,13.92,0,0,0-.5,3.9,24.28,24.28,0,0,1,0,4A19.44,19.44,0,0,1,4,81.75,37.7,37.7,0,0,0,1.19,88a16.48,16.48,0,0,0,.6,11.1,22.48,22.48,0,0,0,6.5,9.4c3.2,2.8,6.3,4.2,9.4,4.2a13.09,13.09,0,0,0,6.4-2.3,46.42,46.42,0,0,0,5.5-4.7,29.76,29.76,0,0,1,5.8-4.3,10.17,10.17,0,0,1,3.9-1.3A30.54,30.54,0,0,1,43,87.65a35.07,35.07,0,0,1,4.3-6.3A20,20,0,0,1,40.39,78a31.08,31.08,0,0,1-7.4-7.9c-2.4-3.6-4-5.8-4.7-6.7a8.66,8.66,0,0,0-6.2-4.3m10.7,32.7a37.61,37.61,0,0,1,5.2.3c-1.4-.1-3.1-.2-5.2-.3Z"/><path class="cls-5" d="M143.79,105c-.6-1.2-2.1-2.4-4.6-3.4-1-.4-1.8-.8-2.6-1.2q-4.35.15-9.6,4.5c-4,3.3-6.4,6.6-7.1,9.9a26.25,26.25,0,0,1,6.8,6.9c1.6,2.5,2.3,5.9,1.9,10.3s-3.1,9.1-8.3,14.6c-2.3,2.6-4.5,4.1-6.7,4.4l-.6.1a3,3,0,0,0,.2.9,3.12,3.12,0,0,0,2.1,2.1c1.3.4,3.2.1,5.8-1,13.9-6.2,23.4-14.1,28.5-23.6a12.61,12.61,0,0,0,1.8-5.8,5.69,5.69,0,0,0-2-5c-.3-.2-.9-.6-1.8-1.1a6.59,6.59,0,0,1-1.8-1.2c-1-1-1.5-2.8-1.4-5.4q.3-4.5-.6-6Z"/><path class="cls-3" d="M75.69,77.85a4.55,4.55,0,0,0-6.4-1.4c-.3.2-.6.5-1.1.8s-.3,1.3.3,3.1a4.55,4.55,0,0,0,2.5,2.3,3.06,3.06,0,0,0,3.1-.6,4.77,4.77,0,0,0,1.8-2,2.48,2.48,0,0,0-.2-2.2m-27.4,13.7c-1.7,5.2-2.2,8.5-1.5,9.8s2.4,2.1,4.7,2.2a8.22,8.22,0,0,0,5.5-1.3,4.53,4.53,0,0,0,1.8-3.1q.15-.9.3-8.1c-.1-.8.2-1.2.9-1.3a3.14,3.14,0,0,0,1.4-.4,3.62,3.62,0,0,0,1.9-2.5,5,5,0,0,0-.9-2.9c-.8-1.4-2.3-2.2-4.7-2.3a7.44,7.44,0,0,0-5.3,1.1C51.49,83.35,50.09,86.35,48.29,91.55Z"/></g></g></g></svg>